<?xml version="1.0" encoding="utf-8"?>
<svg id="master-artboard" viewBox="0 0 90.3458480834961 115.07947540283203" data-name="Layer 1" xmlns="http://www.w3.org/2000/svg" width="90.3458480834961px" height="115.07947540283203px"><rect id="ee-background" x="0" y="0" width="90.3458480834961" height="115.07947540283203" style="fill: white; fill-opacity: 0; pointer-events: none;"/><title>superherox</title><g transform="matrix(0.3527349877394361, 0, 0, 0.3527349877394361, -367.48311973701016, -48.11556277834888)"><path class="cls-2" d="M1155.89,454.44a10.07,10.07,0,0,1-10.08-10V422.27h-1.49v22.17a10,10,0,0,1-10,10h-40.48a20.74,20.74,0,0,1-8.87-39.5q-.17-2.93-.22-5.9c-.51,0-1,0-1.53,0a27.17,27.17,0,0,1-27-30.65,26.83,26.83,0,0,1,6.68-14.58,58.89,58.89,0,0,1,7.66-21.42A44.34,44.34,0,0,1,1046.82,303V216.75a48.27,48.27,0,0,1,.26-5L1036,207.45a19.95,19.95,0,0,1,14.49-37.17l18.36,7.16a67.48,67.48,0,0,1,14.42-7.11c15.11-5.4,33.63-8,56.62-8,3.2,0,6.56.06,10,.16,6.87.2,14.14.6,22.88,1.25,20.85,1.55,37.25,6.38,48.88,14.38l20-7.81a19.95,19.95,0,0,1,14.49,37.17l-14.3,5.58c.09,1.22.13,2.47.13,3.72V303a44,44,0,0,1-3.31,16.87,60.86,60.86,0,0,1,27.36,59c-3.25,25.78-23.49,47.08-48.81,52a20.53,20.53,0,0,1,.2,2.84,20.78,20.78,0,0,1-20.75,20.75Z" transform="matrix(1, 0, 0, 1, 28.87881322024475, -5.684341886080802e-14)" style="fill: rgb(174, 196, 190);"/><path class="cls-3" d="M1150.87,449.77a10.06,10.06,0,0,1-10.08-10V417.61h-1.49v22.16a10,10,0,0,1-10,10h-40.48a20.74,20.74,0,0,1-8.87-39.49c-.11-2-.18-3.92-.22-5.9-.51,0-1,0-1.53,0a27.19,27.19,0,0,1-27-30.66,26.89,26.89,0,0,1,6.68-14.58,58.71,58.71,0,0,1,7.66-21.42,44.34,44.34,0,0,1-23.77-39.43V212.08a48.22,48.22,0,0,1,.26-5L1031,202.79a20,20,0,0,1,7.25-38.54,19.76,19.76,0,0,1,7.24,1.37l18.37,7.16a66.55,66.55,0,0,1,14.42-7.11c15.11-5.41,33.63-8,56.62-8,3.2,0,6.56.05,10,.15,6.87.2,14.14.6,22.88,1.25,20.85,1.56,37.25,6.39,48.88,14.38l20-7.8a19.95,19.95,0,0,1,14.49,37.17l-14.29,5.57c.09,1.23.13,2.47.13,3.72v86.25a44.28,44.28,0,0,1-3.31,16.88,60.79,60.79,0,0,1,27.35,59c-3.25,25.79-23.48,47.08-48.8,52a20.42,20.42,0,0,1,.2,2.84,20.77,20.77,0,0,1-20.75,20.74Z" transform="matrix(1, 0, 0, 1, 28.87881322024475, -5.684341886080802e-14)" style="fill: rgb(255, 255, 255);"/><path class="cls-12" d="M1210.46,367.19c-.15-12.38-6.12-27.56-17.83-34.78a49,49,0,0,0-19-6.54c-2.31-6.17-4-9.69-4-9.69H1110.4s-1.65,3.53-4,9.7a49.1,49.1,0,0,0-18.87,6.53c-11.71,7.22-17.68,22.4-17.82,34.78a36.58,36.58,0,0,1,21.81,8.48c1.56-5.55,3-12.85,6.17-20.88-5.32,22.83-8.73,53-1.19,82.48h30.27V405.11h26.49v32.16h30.28c7.6-29.77,4.07-60.17-1.33-83.06,3.28,8.25,4.8,15.77,6.4,21.46A36.6,36.6,0,0,1,1210.46,367.19Z" transform="matrix(1, 0, 0, 1, 28.87881322024475, -5.684341886080802e-14)" style="fill: rgb(21, 69, 121);"/><path class="cls-5" d="M1185.51,439.77h-34.72V407.61H1129.3v32.16h-34.71l-.48-1.88c-5.27-20.62-5.18-41.51-3.09-59.39l-1.09-.93a34.46,34.46,0,0,0-20.19-7.88h-2.53l0-2.53c.15-12.61,6.08-28.91,19-36.87a50.72,50.72,0,0,1,18.36-6.65c2.05-5.35,3.47-8.39,3.53-8.53l.67-1.43h62.47l.67,1.43c.07.14,1.48,3.17,3.53,8.51a50.87,50.87,0,0,1,18.47,6.67c12.92,8,18.86,24.26,19,36.87l0,2.54h-2.54a34.46,34.46,0,0,0-20.19,7.88l-1.18,1c2.09,17.89,2.16,38.74-3.09,59.31Zm-29.72-5h25.82c7.08-29.63,3-59.76-1.81-80l4.76-1.5a136.11,136.11,0,0,1,5.25,17c.1.37.19.73.28,1.09a40.14,40.14,0,0,1,17.76-6.54c-.79-10.58-6.07-23.88-16.53-30.33a46.65,46.65,0,0,0-18-6.2l-1.47-.21-.52-1.39c-1.4-3.74-2.56-6.51-3.24-8.06h-56c-.67,1.55-1.84,4.33-3.25,8.08l-.51,1.38-1.47.22a46.82,46.82,0,0,0-17.92,6.18c-10.45,6.45-15.73,19.75-16.53,30.33a40.06,40.06,0,0,1,17.76,6.54c.1-.37.19-.75.29-1.13a136.67,136.67,0,0,1,5-16.4l4.76,1.48c-4.68,20.08-8.7,50-1.67,79.41h25.82V402.61h31.49Z" transform="matrix(1, 0, 0, 1, 28.87881322024475, -5.684341886080802e-14)" style="fill: rgb(35, 31, 32);"/><path d="M 1092.839952 377.230011 A 14.64 14.72 0 0 1 1078.199951 391.950011 A 14.64 14.72 0 0 1 1063.559951 377.230011 A 14.64 14.72 0 0 1 1078.199951 362.510011 A 14.64 14.72 0 0 1 1092.839952 377.230011 Z" class="cls-9" transform="matrix(0.7074769139289856, -0.7067364454269409, 0.7067364454269409, 0.7074769139289856, 77.66881677014851, 872.340039854348)" style="fill: rgb(190, 30, 45);"/><path class="cls-5" d="M1078.2,394.42h0a17.15,17.15,0,1,1,2.22-.14A18.51,18.51,0,0,1,1078.2,394.42Zm0-29.37a12.15,12.15,0,0,0-12.09,10.59,12.19,12.19,0,0,0,12.09,13.78h0a14.29,14.29,0,0,0,1.59-.1,12.24,12.24,0,0,0,10.49-10.49,12.19,12.19,0,0,0-12.08-13.78Z" transform="matrix(1, 0, 0, 1, 28.87881322024475, -5.684341886080802e-14)" style="fill: rgb(35, 31, 32);"/><path class="cls-7" d="M1166.81,171.51c-7.08-.53-14.61-1-22.32-1.23-21.09-.62-43.54.55-62,7.16-15.68,5.6-28.17,17-28.17,34.64v86.25a32,32,0,0,0,32,32h106.17a32,32,0,0,0,32-32V212.08C1224.47,181.21,1191.77,173.37,1166.81,171.51Z" transform="matrix(1, 0, 0, 1, 28.87881322024475, -5.684341886080802e-14)" style="fill: rgb(235, 183, 135);"/><path class="cls-5" d="M1192.47,332.83H1086.3a34.54,34.54,0,0,1-34.5-34.5V212.08c0-16.73,10.87-30.22,29.82-37,14-5,31.44-7.44,53.26-7.44,3.1,0,6.36.05,9.68.15,6.73.19,13.86.58,22.44,1.22,39.23,2.93,60,17.82,60,43.07v86.25A34.54,34.54,0,0,1,1192.47,332.83Zm-57.59-160.19c-21.24,0-38.11,2.34-51.57,7.15-9.9,3.54-26.51,12.44-26.51,32.29v86.25a29.53,29.53,0,0,0,29.5,29.5h106.17a29.53,29.53,0,0,0,29.5-29.5V212.08c0-22.53-18.62-35.34-55.34-38.08-8.51-.63-15.56-1-22.21-1.22C1141.14,172.69,1137.93,172.64,1134.88,172.64Z" transform="matrix(1, 0, 0, 1, 28.87881322024475, -5.684341886080802e-14)" style="fill: rgb(35, 31, 32);"/><path class="cls-8" d="M1167,175.63c-8.58-.64-15.71-1-22.44-1.23-3.32-.1-6.58-.15-9.68-.15-21.82,0-39.24,2.44-53.26,7.45a54.54,54.54,0,0,0-15.63,8.47,29.7,29.7,0,0,0-9.19,21.91V298.2H1222V212.08q0-13.26-8.59-22C1203.31,182.07,1187.74,177.18,1167,175.63Z" transform="matrix(1, 0, 0, 1, 28.87881322024475, -5.684341886080802e-14)" style="fill: rgb(214, 149, 118);"/><path class="cls-12" d="M1166.81,171.51c-7.08-.53-14.61-1-22.32-1.23-21.09-.62-43.54.55-62,7.16-15.68,5.6-28.17,17-28.17,34.64v77h170.17v-77C1224.47,181.21,1191.77,173.37,1166.81,171.51Z" transform="matrix(1, 0, 0, 1, 28.87881322024475, -5.684341886080802e-14)" style="fill: rgb(21, 69, 121);"/><path class="cls-5" d="M1227,291.58H1051.8v-79.5c0-16.73,10.87-30.22,29.82-37,14-5,31.44-7.44,53.26-7.44,3.1,0,6.36.05,9.68.15,6.73.19,13.86.58,22.44,1.22,39.23,2.93,60,17.82,60,43.07Zm-170.17-5H1222v-74.5c0-22.53-18.62-35.34-55.34-38.08-8.51-.63-15.56-1-22.21-1.22-3.28-.09-6.49-.14-9.54-.14-21.24,0-38.11,2.34-51.57,7.15-9.9,3.54-26.51,12.44-26.51,32.29Z" transform="matrix(1, 0, 0, 1, 28.87881322024475, -5.684341886080802e-14)" style="fill: rgb(35, 31, 32);"/><path d="M 1114.390015 265.25 A 12.5 12.5 0 0 1 1101.890015 277.75 A 12.5 12.5 0 0 1 1089.390015 265.25 A 12.5 12.5 0 0 1 1101.890015 252.75 A 12.5 12.5 0 0 1 1114.390015 265.25 Z" class="cls-5" style="fill: rgb(35, 31, 32);" transform="matrix(1, 0, 0, 1, 28.87881322024475, -5.684341886080802e-14)"/><path d="M 1189.390015 265.25 A 12.5 12.5 0 0 1 1176.890015 277.75 A 12.5 12.5 0 0 1 1164.390015 265.25 A 12.5 12.5 0 0 1 1176.890015 252.75 A 12.5 12.5 0 0 1 1189.390015 265.25 Z" class="cls-5" style="fill: rgb(35, 31, 32);" transform="matrix(1, 0, 0, 1, 28.87881322024475, -5.684341886080802e-14)"/><path d="M 1101.89001 261.459991 A 3.38 3.38 0 0 1 1098.51001 264.839992 A 3.38 3.38 0 0 1 1095.13001 261.459991 A 3.38 3.38 0 0 1 1098.51001 258.079991 A 3.38 3.38 0 0 1 1101.89001 261.459991 Z" class="cls-3" style="fill: rgb(255, 255, 255);" transform="matrix(1, 0, 0, 1, 28.87881322024475, -5.684341886080802e-14)"/><path d="M 1177.430049 261.459991 A 3.38 3.38 0 0 1 1174.050049 264.839992 A 3.38 3.38 0 0 1 1170.670049 261.459991 A 3.38 3.38 0 0 1 1174.050049 258.079991 A 3.38 3.38 0 0 1 1177.430049 261.459991 Z" class="cls-3" style="fill: rgb(255, 255, 255);" transform="matrix(1, 0, 0, 1, 28.87881322024475, -5.684341886080802e-14)"/><path class="cls-5" d="M1158.14,299a37.21,37.21,0,0,1-4.72,5.17,47.51,47.51,0,0,1-5.58,4.5c-.54.38-1.1.75-1.7,1.11s-1.21.71-1.86,1c-.32.17-.66.33-1,.49s-.68.31-1.08.44l-1.23.38c-.22.05-.51.08-.77.12l-.4.05-.2,0h-.17c-.13,0,.26,0-.3,0-.35,0-.65-.08-1-.15s-1-.25-1.46-.41a11.08,11.08,0,0,1-1.11-.45,9.63,9.63,0,0,1-1-.49,19.47,19.47,0,0,1-1.86-1c-.6-.35-1.16-.72-1.7-1.1a47.68,47.68,0,0,1-5.59-4.5,37.83,37.83,0,0,1-4.71-5.18s.67.24,1.8.72,2.71,1.18,4.55,2.07l6.19,3.06c1.11.55,2.26,1.1,3.38,1.58.29.14.57.24.84.34s.59.23.78.29a3.28,3.28,0,0,1,.5.17c.29.05.66.08,1,.12h-.05c.08,0,.13,0,.24,0l.73-.21c.52-.21,1.08-.36,1.64-.63,1.13-.48,2.27-1,3.38-1.58l6.19-3.06c1.85-.9,3.43-1.6,4.56-2.08S1158.14,299,1158.14,299Z" transform="matrix(1, 0, 0, 1, 28.87881322024475, -5.684341886080802e-14)" style="fill: rgb(35, 31, 32);"/><path class="cls-3" d="M1073.07,189.79l-32.14-12.53a7.45,7.45,0,0,0-9.64,4.24h0a7.45,7.45,0,0,0,4.23,9.64l32.14,12.53a7.45,7.45,0,1,0,5.41-13.88Z" transform="matrix(1, 0, 0, 1, 28.87881322024475, -5.684341886080802e-14)" style="fill: rgb(255, 255, 255);"/><path class="cls-5" d="M1070.37,206.68h0a9.93,9.93,0,0,1-3.61-.68l-32.14-12.53a9.95,9.95,0,0,1,3.61-19.22,9.73,9.73,0,0,1,3.61.69L1074,187.46a9.95,9.95,0,0,1-3.61,19.22Zm-32.14-27.43a5,5,0,0,0-1.8,9.56l32.14,12.53a4.84,4.84,0,0,0,1.8.34,4.95,4.95,0,0,0,1.8-9.56L1040,179.59A5.09,5.09,0,0,0,1038.23,179.25Z" transform="matrix(1, 0, 0, 1, 28.87881322024475, -5.684341886080802e-14)" style="fill: rgb(35, 31, 32);"/><path class="cls-3" d="M1209,189.79l32.14-12.53a7.46,7.46,0,0,1,9.65,4.24h0a7.44,7.44,0,0,1-4.24,9.64l-32.14,12.53a7.45,7.45,0,0,1-5.41-13.88Z" transform="matrix(1, 0, 0, 1, 28.87881322024475, -5.684341886080802e-14)" style="fill: rgb(255, 255, 255);"/><path class="cls-5" d="M1211.75,206.68a9.95,9.95,0,0,1-3.61-19.22l32.14-12.52a9.73,9.73,0,0,1,3.61-.69,9.95,9.95,0,0,1,3.61,19.22L1215.36,206A9.93,9.93,0,0,1,1211.75,206.68Zm32.14-27.43a5,5,0,0,0-1.8.34L1210,192.12a4.95,4.95,0,0,0,1.8,9.56,4.78,4.78,0,0,0,1.79-.34l32.15-12.53a5,5,0,0,0-1.8-9.56Z" transform="matrix(1, 0, 0, 1, 28.87881322024475, -5.684341886080802e-14)" style="fill: rgb(35, 31, 32);"/><path class="cls-9" d="M1092.87,420.78h-4a8.25,8.25,0,0,0-8.25,8.25h0a8.24,8.24,0,0,0,8.25,8.24h37.87V414.6h-33.8C1093.07,416.74,1092.6,418.81,1092.87,420.78Z" transform="matrix(1, 0, 0, 1, 28.87881322024475, -5.684341886080802e-14)" style="fill: rgb(190, 30, 45);"/><path class="cls-5" d="M1129.19,439.77h-40.37a10.75,10.75,0,1,1,0-21.49h1.49c0-.29,0-.57,0-.86a19.18,19.18,0,0,0,0-2.61l-.23-2.71h39Zm-40.37-16.49a5.75,5.75,0,1,0,0,11.49h35.37V417.1h-28.8c0,.21,0,.42,0,.62a14.5,14.5,0,0,0,0,2.72l.39,2.84Z" transform="matrix(1, 0, 0, 1, 28.87881322024475, -5.684341886080802e-14)" style="fill: rgb(35, 31, 32);"/><path class="cls-9" d="M1191.66,420.78h-4.05c.27-2-.63-4-.45-6.18h-33.8v22.67h38.3a8.25,8.25,0,0,0,8.25-8.24h0A8.25,8.25,0,0,0,1191.66,420.78Z" transform="matrix(1, 0, 0, 1, 28.87881322024475, -5.684341886080802e-14)" style="fill: rgb(190, 30, 45);"/><path class="cls-5" d="M1191.66,439.77h-40.79V412.1h39l-.23,2.71a10.27,10.27,0,0,0,.21,2.45c.06.33.11.67.16,1h1.63a10.75,10.75,0,1,1,0,21.49Zm-35.79-5h35.79a5.75,5.75,0,1,0,0-11.49h-6.93l.4-2.84a9.08,9.08,0,0,0-.19-2.38c0-.31-.11-.63-.15-1h-28.92Z" transform="matrix(1, 0, 0, 1, 28.87881322024475, -5.684341886080802e-14)" style="fill: rgb(35, 31, 32);"/><path class="cls-3" d="M1186.35,382.18c-42.48,9.53-92.51,0-92.51,0l1.55-15.83s48.36,9.21,89.42,0Z" transform="matrix(1, 0, 0, 1, 28.87881322024475, -5.684341886080802e-14)" style="fill: rgb(255, 255, 255);"/><path class="cls-5" d="M1143.49,388.91a302.24,302.24,0,0,1-50.11-4.27l-2.25-.43,2-20.83,2.69.52a286.81,286.81,0,0,0,47.52,4,188.25,188.25,0,0,0,40.88-4l2.76-.62,2,20.85-2.15.48A200.15,200.15,0,0,1,1143.49,388.91Zm-46.93-8.8a302.85,302.85,0,0,0,46.93,3.8,199.1,199.1,0,0,0,40.16-3.7l-1.06-10.83a197.87,197.87,0,0,1-39.21,3.56,298.67,298.67,0,0,1-45.76-3.67Z" transform="matrix(1, 0, 0, 1, 28.87881322024475, -5.684341886080802e-14)" style="fill: rgb(35, 31, 32);"/><path class="cls-9" d="M1109.54,370.92l-1.06,10.86c3.53.42,7.6.84,12.08,1.2l1.06-10.9C1117.16,371.74,1113.09,371.33,1109.54,370.92Z" transform="matrix(1, 0, 0, 1, 28.87881322024475, -5.684341886080802e-14)" style="fill: rgb(190, 30, 45);"/><path class="cls-9" d="M1170.42,371.35q-5.85.73-12.08,1.13l1.06,10.92q6.25-.42,12.08-1.18Z" transform="matrix(1, 0, 0, 1, 28.87881322024475, -5.684341886080802e-14)" style="fill: rgb(190, 30, 45);"/><path class="cls-9" d="M1143.38,372.94c-3.27,0-6.47-.06-9.56-.17l-.61,11c3.32.12,6.76.19,10.28.19l1.86,0,.61-11Z" transform="matrix(1, 0, 0, 1, 28.87881322024475, -5.684341886080802e-14)" style="fill: rgb(190, 30, 45);"/><path d="M 1248.869957 366.350006 A 48.290001 48.540001 0 0 1 1200.579956 414.890007 A 48.290001 48.540001 0 0 1 1152.289955 366.350006 A 48.290001 48.540001 0 0 1 1200.579956 317.810005 A 48.290001 48.540001 0 0 1 1248.869957 366.350006 Z" class="cls-9" transform="matrix(0.7071068286895752, -0.7071068286895752, 0.7071068286895752, 0.7071068286895752, 121.46881284518258, 956.2400044834613)" style="fill: rgb(190, 30, 45);"/><path class="cls-5" d="M1200.58,417.29h0A50.94,50.94,0,0,1,1194,315.83a54.3,54.3,0,0,1,6.61-.41,50.94,50.94,0,0,1,6.6,101.45A52.22,52.22,0,0,1,1200.58,417.29Zm0-96.87A45.84,45.84,0,0,0,1155,360.37a46,46,0,0,0,45.56,51.92h0a48.14,48.14,0,0,0,6-.38,46.2,46.2,0,0,0,39.57-39.57,45.94,45.94,0,0,0-45.55-51.92Z" transform="matrix(1, 0, 0, 1, 28.87881322024475, -5.684341886080802e-14)" style="fill: rgb(35, 31, 32);"/><path class="cls-3" d="M1196.09,332.12a34.53,34.53,0,1,0,38.72,38.72A34.59,34.59,0,0,0,1196.09,332.12Zm30.05,37.58a25.78,25.78,0,1,1-28.92-28.91A25.83,25.83,0,0,1,1226.14,369.7Z" transform="matrix(1, 0, 0, 1, 28.87881322024475, -5.684341886080802e-14)" style="fill: rgb(255, 255, 255);"/><path d="M 1221.469955 366.350006 A 20.889999 21 0 0 1 1200.579956 387.350006 A 20.889999 21 0 0 1 1179.689957 366.350006 A 20.889999 21 0 0 1 1200.579956 345.350006 A 20.889999 21 0 0 1 1221.469955 366.350006 Z" class="cls-12" transform="matrix(0.7072301506996155, -0.7069832682609558, 0.7069832682609558, 0.7072301506996155, 121.4088152856948, 956.1200093644856)" style="fill: rgb(21, 69, 121);"/></g></svg>