<?xml version="1.0" encoding="utf-8"?>
<svg id="master-artboard" viewBox="0 0 90.3458480834961 115.07947540283203" data-name="Layer 1" xmlns="http://www.w3.org/2000/svg" width="90.3458480834961px" height="115.07947540283203px"><rect id="ee-background" x="0" y="0" width="90.3458480834961" height="115.07947540283203" style="fill: white; fill-opacity: 0; pointer-events: none;"/><title>superherox</title><g transform="matrix(0.39678955078125, 0, 0, 0.39678955078125, -293.62897021512583, -63.80592816133901)"><path class="cls-2" d="M867.42,454.44a10.09,10.09,0,0,1-10.1-10V429.75a10.88,10.88,0,0,1,.1-1.41v-6.07h-1.49v22.17a10,10,0,0,1-10,10H811.22a10,10,0,0,1-9.69-7.53l-.48-1.88c-.27-1.06-.53-2.14-.78-3.23-.09-.37-.17-.76-.26-1.15-.16-.71-.31-1.44-.46-2.16l-.25-1.22c-.19-.95-.36-1.89-.53-2.83l-.52-2.94a9.18,9.18,0,0,1-.14-1.16,166.26,166.26,0,0,1-1.75-21.27h-1a27.13,27.13,0,0,1-21.49-43.78,58.29,58.29,0,0,1,7.9-23A44.42,44.42,0,0,1,758.23,303v-1.2c0-.16,0-.32,0-.48V286c0-.12,0-.24,0-.37l0-57.34a44.65,44.65,0,0,1,39.57-44.23,9.82,9.82,0,0,1,2.44-.3h33.13l75.52,0,.75,0h3.52a9.85,9.85,0,0,1,3.69.71,44.53,44.53,0,0,1,36.55,43.76l0,74.75a44.73,44.73,0,0,1-22.56,38.69,58.05,58.05,0,0,1,8.27,23.44,27.19,27.19,0,0,1-17.9,43.77,28.85,28.85,0,0,1-3.47.21H917a158,158,0,0,1-4.69,36l-.48,1.88a10,10,0,0,1-9.69,7.53Z" transform="matrix(1, 0, 0, 1, 0, -2.842170943040401e-14)" style="fill: rgb(174, 196, 190);"/><path class="cls-3" d="M862.4,449.77a10.08,10.08,0,0,1-10.1-10V425.08a10.73,10.73,0,0,1,.1-1.4v-6.07h-1.49v22.16a10,10,0,0,1-10,10H806.2a10,10,0,0,1-9.69-7.52l-.48-1.88c-.28-1.07-.53-2.15-.78-3.24-.09-.37-.17-.76-.26-1.15-.16-.71-.31-1.43-.46-2.16l-.25-1.22c-.19-.94-.37-1.88-.53-2.83l-.53-2.94a11.24,11.24,0,0,1-.13-1.15,168.23,168.23,0,0,1-1.76-21.28l-1,0a27.14,27.14,0,0,1-21.49-43.79,58.35,58.35,0,0,1,7.9-23,44.39,44.39,0,0,1-23.55-39.28v-1.19c0-.16,0-.33,0-.49V281.32c0-.12,0-.24,0-.36l0-57.35a44.65,44.65,0,0,1,39.57-44.23,10.32,10.32,0,0,1,2.44-.3h33.13l75.52,0h4.26a9.87,9.87,0,0,1,3.7.71,44.54,44.54,0,0,1,36.55,43.76l0,74.75A44.67,44.67,0,0,1,925.83,337a58.2,58.2,0,0,1,8.27,23.45,27.18,27.18,0,0,1-17.9,43.76,29,29,0,0,1-3.47.22H912a158.11,158.11,0,0,1-4.69,36l-.48,1.88a10,10,0,0,1-9.69,7.52Z" transform="matrix(1, 0, 0, 1, 0, -2.842170943040401e-14)" style="fill: rgb(255, 255, 255);"/><path class="cls-9" d="M904.24,332.41a49.07,49.07,0,0,0-19-6.55c-2.31-6.16-4-9.68-4-9.68H822s-1.64,3.5-3.94,9.63a49.35,49.35,0,0,0-19.33,6.6c-20.19,12.45-23.31,48.61-8.92,53.19s11.15-12.34,20.12-33.35c-5.66,23.1-9.62,54.4-1.8,85h30.27V405.11H864.9v32.16h30.28c7.61-29.8,4.06-60.25-1.36-83.15,8,20.13,5.48,35.89,19.35,31.48C927.56,381,924.44,344.86,904.24,332.41Z" transform="matrix(1, 0, 0, 1, 0, -2.842170943040401e-14)" style="fill: rgb(190, 30, 45);"/><path class="cls-5" d="M897.12,439.77H862.4V407.61H840.91v32.16H806.2l-.48-1.88c-4.71-18.41-5.16-37-3.68-53.68a8.84,8.84,0,0,1-8.06,4.63,16.29,16.29,0,0,1-4.92-.86c-5.58-1.78-9.36-7.51-10.37-15.72-1.68-13.71,4.32-33.08,18.74-42a51,51,0,0,1,18.82-6.73c2-5.3,3.44-8.31,3.5-8.45l.67-1.43h62.47l.67,1.43c.07.14,1.48,3.17,3.52,8.5a50.88,50.88,0,0,1,18.47,6.68c14.43,8.89,20.43,28.26,18.75,42-1,8.21-4.79,13.94-10.38,15.72a16.18,16.18,0,0,1-4.91.86h0a8.68,8.68,0,0,1-7.69-4.07c1.41,16.43.94,34.88-3.72,53.12Zm-29.72-5h25.82c7.09-29.66,3-59.82-1.83-80.08l4.76-1.5a135,135,0,0,1,5.25,17.05c2.52,9.87,3.83,13.6,7.61,13.6h0a11.49,11.49,0,0,0,3.4-.63c3.64-1.15,6.17-5.37,6.93-11.56,1.51-12.34-4.21-29.59-16.41-37.11a46.88,46.88,0,0,0-18-6.21l-1.47-.21-.52-1.38c-1.4-3.74-2.56-6.51-3.24-8.06h-56c-.67,1.54-1.83,4.29-3.22,8l-.52,1.4-1.48.2a47,47,0,0,0-18.35,6.25c-12.2,7.52-17.92,24.77-16.41,37.11.76,6.19,3.29,10.41,6.93,11.56,6.55,2.09,7.85-.62,11-13a125.12,125.12,0,0,1,6-19l4.73,1.57c-5.08,20.74-9.52,51.61-2.28,81.93h25.82V402.61H867.4Z" transform="matrix(1, 0, 0, 1, 0, -2.842170943040401e-14)" style="fill: rgb(35, 31, 32);"/><path d="M 867.659973 359.850006 A 16 16 0 0 1 851.659973 375.850006 A 16 16 0 0 1 835.659973 359.850006 A 16 16 0 0 1 851.659973 343.850006 A 16 16 0 0 1 867.659973 359.850006 Z" class="cls-10" style="fill: rgb(174, 215, 215);" transform="matrix(1, 0, 0, 1, 0, -2.842170943040401e-14)"/><path class="cls-5" d="M851.66,378.35a18.5,18.5,0,1,1,18.49-18.5A18.52,18.52,0,0,1,851.66,378.35Zm0-32a13.5,13.5,0,1,0,13.49,13.5A13.51,13.51,0,0,0,851.66,346.35Z" transform="matrix(1, 0, 0, 1, 0, -2.842170943040401e-14)" style="fill: rgb(35, 31, 32);"/><path d="M 804.989976 377.230011 A 14.64 14.72 0 0 1 790.349976 391.950011 A 14.64 14.72 0 0 1 775.709975 377.230011 A 14.64 14.72 0 0 1 790.349976 362.510011 A 14.64 14.72 0 0 1 804.989976 377.230011 Z" class="cls-6" transform="matrix(0.7072301631201011, -0.7069833777205198, 0.7069833777205198, 0.7072301631201011, -35.30000052601099, 669.2199806752797)" style="fill: rgb(233, 194, 38);"/><path class="cls-5" d="M790.35,394.42h0a17.15,17.15,0,1,1,2.22-.14A18.51,18.51,0,0,1,790.35,394.42Zm0-29.37a12.15,12.15,0,0,0-12.09,10.59,12.19,12.19,0,0,0,12.09,13.78h0a14.14,14.14,0,0,0,1.59-.1,12.24,12.24,0,0,0,10.49-10.49,12.19,12.19,0,0,0-12.08-13.78Z" transform="matrix(1, 0, 0, 1, 0, -2.842170943040401e-14)" style="fill: rgb(35, 31, 32);"/><path d="M 927.369981 377.230011 A 14.64 14.72 0 0 1 912.72998 391.950011 A 14.64 14.72 0 0 1 898.08998 377.230011 A 14.64 14.72 0 0 1 912.72998 362.510011 A 14.64 14.72 0 0 1 927.369981 377.230011 Z" class="cls-6" transform="matrix(0.7074769094285854, -0.706736459102951, 0.706736459102951, 0.7074769094285854, 0.37000001028184215, 755.3700307871404)" style="fill: rgb(233, 194, 38);"/><path class="cls-5" d="M912.73,394.42h0a17.15,17.15,0,1,1,2.22-.14A18.51,18.51,0,0,1,912.73,394.42Zm0-29.37a12.15,12.15,0,0,0-12.09,10.59,12.19,12.19,0,0,0,12.09,13.78h0a14.29,14.29,0,0,0,1.59-.1,12.24,12.24,0,0,0,10.49-10.49,12.19,12.19,0,0,0-12.08-13.78Z" transform="matrix(1, 0, 0, 1, 0, -2.842170943040401e-14)" style="fill: rgb(35, 31, 32);"/><path class="cls-6" d="M808.14,437.27h30.27v-9.69H806.05C806.63,430.81,807.31,434.05,808.14,437.27Z" transform="matrix(1, 0, 0, 1, 0, -2.842170943040401e-14)" style="fill: rgb(233, 194, 38);"/><path class="cls-5" d="M840.91,439.77H806.2l-.48-1.88c-.81-3.14-1.52-6.47-2.13-9.87l-.52-2.94h37.84Zm-30.82-5h25.82v-4.69H809.07C809.39,431.68,809.73,433.24,810.09,434.77Z" transform="matrix(1, 0, 0, 1, 0, -2.842170943040401e-14)" style="fill: rgb(35, 31, 32);"/><path class="cls-6" d="M895.08,437.27H864.8v-9.69h32.36C896.59,430.81,895.9,434.05,895.08,437.27Z" transform="matrix(1, 0, 0, 1, 0, -2.842170943040401e-14)" style="fill: rgb(233, 194, 38);"/><path class="cls-5" d="M897,439.77H862.3V425.08h37.84l-.52,2.94c-.6,3.39-1.31,6.71-2.12,9.87Zm-29.72-5h25.82c.36-1.53.71-3.1,1-4.69H867.3Z" transform="matrix(1, 0, 0, 1, 0, -2.842170943040401e-14)" style="fill: rgb(35, 31, 32);"/><path class="cls-11" d="M906.31,337a27.34,27.34,0,0,0-3.38-2.47,46.88,46.88,0,0,0-18-6.21l-1.47-.21-.52-1.38c-1.4-3.74-2.56-6.51-3.24-8.06h-56c-.67,1.54-1.83,4.29-3.22,8l-.52,1.4-1.48.2a47,47,0,0,0-18.35,6.25,27.61,27.61,0,0,0-3.5,2.57c.39,0,.77,0,1.16,0l106.18,0C904.71,337.1,905.51,337.07,906.31,337Z" transform="matrix(1, 0, 0, 1, 0, -2.842170943040401e-14)" style="fill: rgb(139, 14, 26);"/><path class="cls-9" d="M903.85,191.57l-106.17,0a32,32,0,0,0-32,32l0,74.75a32,32,0,0,0,32,32l106.18,0a32,32,0,0,0,32-32l0-74.74A32,32,0,0,0,903.85,191.57Z" transform="matrix(1, 0, 0, 1, 0, -2.842170943040401e-14)" style="fill: rgb(190, 30, 45);"/><path class="cls-5" d="M903.9,332.81l-106.18,0a34.55,34.55,0,0,1-34.51-34.49l0-74.75a34.53,34.53,0,0,1,34.48-34.51l106.18,0a34.53,34.53,0,0,1,34.51,34.48l0,74.75A34.52,34.52,0,0,1,903.9,332.81ZM797.68,194.1a29.52,29.52,0,0,0-29.49,29.51l0,74.75a29.54,29.54,0,0,0,29.51,29.49l106.17,0a29.52,29.52,0,0,0,29.49-29.5l0-74.75a29.52,29.52,0,0,0-29.51-29.49Z" transform="matrix(1, 0, 0, 1, 0, -2.842170943040401e-14)" style="fill: rgb(35, 31, 32);"/><path d="M 905.6099853515625 234.0800018310547 L 905.6099853515625 191.5800018310547 L 877.530029296875 191.5800018310547 L 871.280029296875 236.8300018310547 L 851.6599731445312 236.8300018310547 L 832.030029296875 236.8300018310547 L 825.780029296875 191.5800018310547 L 797.7000122070312 191.5800018310547 L 797.7000122070312 234.0800018310547 L 765.7000122070312 282.0799865722656 L 765.7000122070312 295.3999938964844 L 814.530029296875 330.3299865722656 L 851.6599731445312 330.3299865722656 L 888.7899780273438 330.3299865722656 L 935.489990234375 295.3999938964844 L 935.489990234375 282.0799865722656 L 905.6099853515625 234.0800018310547 Z" class="cls-6" style="fill: rgb(233, 194, 38);" transform="matrix(1, 0, 0, 1, 0, -2.842170943040401e-14)"/><path class="cls-5" d="M889.62,332.83h-75.9L763.2,296.68V281.32l32-48V189.08H828l6.25,45.25h34.9l6.24-45.25h32.76v44.29l29.88,48v15.28Zm-74.29-5H888l45-33.68V282.8l-29.88-48V194.08h-23.4l-6.25,45.25H829.85l-6.24-45.25H800.2v40.76l-32,48v11.27Z" transform="matrix(1, 0, 0, 1, 0, -2.842170943040401e-14)" style="fill: rgb(35, 31, 32);"/><path d="M 886.9600219726562 332.0299987792969 L 868.5800170898438 312.29998779296875 L 834.72998046875 312.29998779296875 L 816.3599853515625 332.0299987792969 L 812.7000122070312 328.6300048828125 L 832.5499877929688 307.29998779296875 L 870.760009765625 307.29998779296875 L 890.6199951171875 328.6300048828125 L 886.9600219726562 332.0299987792969 Z" class="cls-5" style="fill: rgb(35, 31, 32);" transform="matrix(1, 0, 0, 1, 0, -2.842170943040401e-14)"/><path d="M 798.640015 268.380005 H 832.640015 V 277.600005 H 798.640015 V 268.380005 Z" class="cls-10" transform="matrix(0.9282263359862248, 0.3720159528589977, -0.3720159528589977, 0.9282263359862248, 160.05000238493085, -283.7800091114641)" style="fill: rgb(174, 215, 215);"/><path class="cls-5" d="M831.09,286.84l-36.2-14.5,5.29-13.2,36.21,14.5Zm-29.7-17.28,26.92,10.78,1.57-3.91L803,265.64Z" transform="matrix(1, 0, 0, 1, 0, -2.842170943040401e-14)" style="fill: rgb(35, 31, 32);"/><path d="M 868.150024 268.380005 H 902.150024 V 277.600005 H 868.150024 V 268.380005 Z" class="cls-10" transform="matrix(-0.9282263607546831, 0.3720158910585905, -0.3720158910585905, -0.9282263607546831, 1808.329909758715, 197.16999805524935)" style="fill: rgb(174, 215, 215);"/><path class="cls-5" d="M869.69,286.84l-5.29-13.2,36.2-14.5,5.29,13.2Zm1.21-10.41,1.57,3.91,26.92-10.78-1.57-3.92Z" transform="matrix(1, 0, 0, 1, 0, -2.842170943040401e-14)" style="fill: rgb(35, 31, 32);"/></g></svg>